<?xml version="1.0" encoding="UTF-8" standalone="no"?>
<svg
   width="128"
   height="128"
   viewBox="0 0 128 128"
   fill="none"
   stroke="currentColor"
   stroke-width="2"
   stroke-linecap="round"
   stroke-linejoin="round"
   class="icon icon-tabler icons-tabler-outline icon-tabler-progress-alert"
   version="1.1"
   id="svg8"
   sodipodi:docname="status-warn.svg"
   inkscape:version="1.4.2 (ebf0e940d0, 2025-05-08)"
   xmlns:inkscape="http://www.inkscape.org/namespaces/inkscape"
   xmlns:sodipodi="http://sodipodi.sourceforge.net/DTD/sodipodi-0.dtd"
   xmlns="http://www.w3.org/2000/svg"
   xmlns:svg="http://www.w3.org/2000/svg">
  <sodipodi:namedview
     id="namedview1"
     pagecolor="#ffffff"
     bordercolor="#000000"
     borderopacity="0.25"
     inkscape:showpageshadow="2"
     inkscape:pageopacity="0.0"
     inkscape:pagecheckerboard="0"
     inkscape:deskcolor="#d1d1d1"
     inkscape:zoom="3.3734886"
     inkscape:cx="63.880459"
     inkscape:cy="64.028673"
     inkscape:window-width="2048"
     inkscape:window-height="1124"
     inkscape:window-x="0"
     inkscape:window-y="0"
     inkscape:window-maximized="1"
     inkscape:current-layer="svg8" />
  <defs
     id="defs8">
    <filter
       inkscape:menu-tooltip="In and out glow with a possible offset and colorizable flood"
       inkscape:menu="Shadows and Glows"
       inkscape:label="Cutout Glow"
       style="color-interpolation-filters:sRGB"
       id="filter39"
       x="-0.084375007"
       y="-0.081657826"
       width="1.2039063"
       height="1.1973397">
      <feOffset
         dy="3"
         dx="3"
         id="feOffset38" />
      <feGaussianBlur
         stdDeviation="3"
         result="blur"
         id="feGaussianBlur39" />
      <feFlood
         flood-color="rgb(0,0,0)"
         flood-opacity="1"
         result="flood"
         id="feFlood39" />
      <feComposite
         in="flood"
         in2="SourceGraphic"
         operator="in"
         result="composite"
         id="feComposite39" />
      <feBlend
         in="blur"
         in2="composite"
         mode="normal"
         id="feBlend39" />
    </filter>
  </defs>
  <g
     id="background"
     transform="matrix(6.0952381,0,0,6.0952381,-7.642856,-7.6428613)">
    <path
       d="m 51.192336,44.971109 c 0.03048,0 0.01341,0 0,0 z M 40.902615,39.826245 c 0.03041,0 0.01365,0 0,0 z m 61.549135,7.941288 c -1.85595,-4.463152 -5.623457,-9.274104 -8.567354,-10.810054 2.406863,4.708017 3.79812,9.449408 4.318458,12.969279 l 0.01341,0.07546 C 93.377742,37.956382 85.191593,33.103683 78.494103,22.535707 c -0.333897,-0.534248 -0.667916,-1.071262 -1.001679,-1.636115 -0.175421,-0.28939 -0.320061,-0.578768 -0.478659,-0.887629 -0.275688,-0.534248 -0.475734,-1.099086 -0.623263,-1.694548 0,-0.05553 -0.04206,-0.100194 -0.100084,-0.114115 -0.03048,0 -0.0579,0 -0.08674,0 l -0.01341,0.01365 c -0.01341,0 -0.03048,0.01365 -0.03048,0.01365 0,0 0,-0.01365 0.01341,-0.0306 -9.507694,5.565363 -13.433813,15.318068 -14.44942,21.506367 -2.941197,0.175306 -5.809957,0.912788 -8.461684,2.159285 -0.509197,0.258829 -0.737335,0.843041 -0.548084,1.3607 0.214308,0.592622 0.882054,0.887701 1.460809,0.62322 2.317866,-1.087951 4.810996,-1.739026 7.376476,-1.911534 l 0.247649,-0.03041 c 0.347855,-0.01365 0.709486,-0.03041 1.057353,-0.03041 2.072966,-0.01365 4.143165,0.275504 6.129859,0.85421 l 0.347856,0.102961 c 0.333897,0.100047 0.653848,0.214315 0.987751,0.33394 0.230949,0.08704 0.478659,0.175305 0.709449,0.275504 0.189014,0.06959 0.378454,0.158623 0.564846,0.230986 0.292206,0.133406 0.581608,0.278259 0.870912,0.422973 l 0.389547,0.186477 c 0.289402,0.147468 0.56771,0.303336 0.843063,0.464726 0.175421,0.10296 0.347855,0.203148 0.520228,0.320018 3.09134,1.914297 5.667938,4.566048 7.465448,7.724186 -2.273302,-1.591618 -6.363597,-3.186004 -10.286931,-2.490373 15.359458,7.67972 11.23019,34.127501 -10.058782,33.125791 -1.900465,-0.06942 -3.770308,-0.434042 -5.551111,-1.071274 -0.434103,-0.158599 -0.85696,-0.333898 -1.260495,-0.509258 -0.244907,-0.114529 -0.492617,-0.230948 -0.723425,-0.344929 -5.219981,-2.696259 -9.52453,-7.799375 -10.058777,-13.987694 0,0 1.970028,-7.345822 14.11289,-7.345822 1.321698,0 5.07531,-3.670139 5.144869,-4.727486 -0.03109,-0.348038 -7.466039,-3.30296 -10.362636,-6.157818 -1.549715,-1.52198 -2.273165,-2.259345 -2.927062,-2.813061 -0.347855,-0.30336 -0.723413,-0.578682 -1.115788,-0.837535 -0.968021,-3.405772 -1.012535,-7.014686 -0.114249,-10.437186 -4.393577,2.000638 -7.799372,5.161568 -10.275804,7.944071 h -0.02462 c -1.69471,-2.145306 -1.566701,-9.21845 -1.480454,-10.695964 -0.01396,-0.100051 -1.260475,0.637139 -1.421862,0.754011 -1.491425,1.071275 -2.896593,2.262178 -4.173764,3.581088 -1.46082,1.477513 -2.793642,3.071899 -3.998467,4.783141 -2.737992,3.884374 -4.694096,8.289085 -5.723625,12.924745 -0.01365,0.0579 -0.403456,1.800296 -0.69285,3.942833 -0.05845,0.333897 -0.102949,0.667923 -0.144713,0.998912 -0.119625,0.812465 -0.203118,1.638906 -0.24765,2.451389 l -0.01365,0.13056 c -0.02493,0.478659 -0.05553,0.943244 -0.0863,1.421891 v 0.214126 c 0,23.595691 19.129755,42.725453 42.725437,42.725453 21.127595,0 38.676873,-15.348331 42.113283,-35.493685 0.0758,-0.548083 0.1305,-1.099111 0.18902,-1.650035 0.8542,-7.32079 -0.0867,-15.028341 -2.76859,-21.461498 z"
       id="path1-6"
       style="fill:#999999;fill-opacity:1;stroke:none;stroke-width:5.56204;stroke-dasharray:none;stroke-opacity:1"
       transform="matrix(0.1640625,0,0,0.1640625,1.4398441,1.5350436)" />
  </g>
  <path
     stroke="none"
     d="M 0,0 H 128 V 128 H 0 Z"
     fill="none"
     id="path1"
     style="stroke-width:10.6667" />
  <path
     d="M 51.809524,117.49791 A 54.503619,54.503619 0 0 1 36.693333,111.59162"
     id="path2"
     style="stroke:#ffa500;stroke-width:12.1905" />
  <path
     d="m 76.190476,10.502095 a 54.875429,54.875429 0 0 1 0,106.995815"
     id="path3"
     style="stroke:#ffa500;stroke-width:12.1905" />
  <path
     d="M 18.767238,95.043048 A 54.619429,54.619429 0 0 1 11.288381,79.24419"
     id="path4"
     style="stroke:#ffa500;stroke-width:12.1905" />
  <path
     d="m 9.898667,54.857143 c 0.975238,-5.790476 2.852571,-11.276191 5.485714,-16.304762 l 1.030095,-1.859048"
     id="path5"
     style="stroke:#ffa500;stroke-width:12.1905" />
  <path
     d="M 32.956952,18.767238 A 54.576762,54.576762 0 0 1 51.809524,10.502095"
     id="path6"
     style="stroke:#ffa500;stroke-width:12.1905" />
  <path
     d="M 64,39.619048 V 64"
     id="path7"
     style="stroke:#ffa500;stroke-width:12.1905" />
  <path
     d="m 64,88.380952 v 0.06095"
     id="path8"
     style="stroke:#ffa500;stroke-width:12.1905" />
</svg>
