<?xml version="1.0" encoding="UTF-8" standalone="no"?>
<svg
   width="128"
   height="128"
   viewBox="0 0 128 128"
   fill="none"
   stroke="currentColor"
   stroke-width="2"
   stroke-linecap="round"
   stroke-linejoin="round"
   class="icon icon-tabler icons-tabler-outline icon-tabler-progress-help"
   version="1.1"
   id="svg8"
   sodipodi:docname="status-unknown.svg"
   inkscape:version="1.4.2 (ebf0e940d0, 2025-05-08)"
   xmlns:inkscape="http://www.inkscape.org/namespaces/inkscape"
   xmlns:sodipodi="http://sodipodi.sourceforge.net/DTD/sodipodi-0.dtd"
   xmlns="http://www.w3.org/2000/svg"
   xmlns:svg="http://www.w3.org/2000/svg">
  <defs
     id="defs8" />
  <sodipodi:namedview
     id="namedview8"
     pagecolor="#ffffff"
     bordercolor="#000000"
     borderopacity="0.25"
     inkscape:showpageshadow="2"
     inkscape:pageopacity="0.0"
     inkscape:pagecheckerboard="0"
     inkscape:deskcolor="#d1d1d1"
     inkscape:zoom="3.3734886"
     inkscape:cx="63.880459"
     inkscape:cy="64.028673"
     inkscape:window-width="2048"
     inkscape:window-height="1124"
     inkscape:window-x="0"
     inkscape:window-y="0"
     inkscape:window-maximized="1"
     inkscape:current-layer="layer1" />
  <g
     inkscape:groupmode="layer"
     id="layer1"
     inkscape:label="background"
     transform="translate(52,52)">
    <path
       d="m 0.32567701,-5.315293 c 0.03048,0 0.01341,0 0,0 z M -9.964044,-10.460157 c 0.03041,0 0.01365,0 0,0 z m 61.549138,7.941288 c -1.855951,-4.463152 -5.62346,-9.274104 -8.567357,-10.810054 2.406863,4.708017 3.79812,9.449408 4.318458,12.96928 l 0.01341,0.07546 c -4.838522,-12.045836 -13.024671,-16.898535 -19.722161,-27.466511 -0.333897,-0.534248 -0.667916,-1.071262 -1.001679,-1.636115 -0.175421,-0.28939 -0.320061,-0.578768 -0.478659,-0.887629 -0.275688,-0.534248 -0.475734,-1.099086 -0.623263,-1.694548 0,-0.05553 -0.04206,-0.100194 -0.100084,-0.114115 -0.03048,0 -0.0579,0 -0.08674,0 l -0.01341,0.01365 c -0.01341,0 -0.03048,0.01365 -0.03048,0.01365 0,0 0,-0.01365 0.01341,-0.0306 -9.507694,5.565363 -13.433813,15.318068 -14.44942,21.506367 -2.941197,0.175306 -5.809957,0.912788 -8.461684,2.159286 -0.509197,0.258828 -0.737335,0.84304 -0.548084,1.360699 0.214308,0.592622 0.882054,0.887701 1.460809,0.62322 2.317867,-1.087951 4.810996,-1.739026 7.376476,-1.911534 l 0.247649,-0.03041 c 0.347855,-0.01365 0.709486,-0.03042 1.057353,-0.03042 2.072966,-0.01365 4.143165,0.275504 6.129859,0.85421 l 0.347856,0.102961 c 0.333897,0.100047 0.653848,0.214315 0.987751,0.33394 0.230949,0.08704 0.478659,0.175305 0.709449,0.275504 0.189014,0.06959 0.378454,0.158623 0.564846,0.230986 0.292206,0.133406 0.581608,0.278259 0.870912,0.422973 l 0.389547,0.186477 c 0.289402,0.147468 0.56771,0.303336 0.843063,0.464726 0.175421,0.10296 0.347855,0.203148 0.520228,0.320018 3.09134,1.914297 5.667938,4.566048 7.465448,7.724186 C 28.545295,0.91517 24.455,-0.679216 20.531666,0.016415 35.891124,7.696135 31.761856,34.143916 10.472884,33.142206 8.572419,33.072786 6.702576,32.708164 4.921773,32.070932 4.487671,31.912333 4.064813,31.737034 3.661278,31.561674 3.416372,31.447145 3.168661,31.330726 2.937853,31.216745 -2.282128,28.520486 -6.586677,23.41737 -7.120924,17.229051 c 0,0 1.970028,-7.3458223 14.11289,-7.3458223 1.321698,0 5.07531,-3.6701382 5.144869,-4.7274853 C 12.105745,4.8077053 4.670796,1.852783 1.774199,-1.002075 0.22448401,-2.524055 -0.49896599,-3.26142 -1.152863,-3.815136 -1.500718,-4.118496 -1.876276,-4.393818 -2.268651,-4.65267 -3.236672,-8.058443 -3.281186,-11.667357 -2.3829,-15.089857 c -4.393577,2.000638 -7.799372,5.161568 -10.275804,7.944071 h -0.02462 c -1.69471,-2.145306 -1.566701,-9.21845 -1.480454,-10.695964 -0.01396,-0.100051 -1.260475,0.637139 -1.421862,0.754011 -1.491425,1.071275 -2.896593,2.262178 -4.173764,3.581088 -1.46082,1.477513 -2.793642,3.071899 -3.998467,4.783141 -2.737992,3.884374 -4.694096,8.289085 -5.723625,12.9247452 -0.01365,0.057905 -0.403456,1.8002956 -0.69285,3.9428328 -0.05845,0.3338971 -0.102949,0.6679227 -0.144713,0.9989117 -0.119625,0.812465 -0.203118,1.6389063 -0.24765,2.4513893 l -0.01365,0.13056 c -0.02493,0.478659 -0.05553,0.943244 -0.0863,1.421891 v 0.214126 c 0,23.595691 19.129755,42.725455 42.725437,42.725455 21.127595,0 38.676876,-15.348333 42.113286,-35.493687 0.07576,-0.548083 0.130499,-1.099111 0.189014,-1.650035 0.854199,-7.32079 -0.08674,-15.0283405 -2.768592,-21.461498 z"
       id="path1-6"
       style="fill:#999999;fill-opacity:1;stroke:none;stroke-width:5.56204;stroke-dasharray:none;stroke-opacity:1" />
  </g>
  <path
     stroke="none"
     d="M 0,0 H 128 V 128 H 0 Z"
     fill="none"
     id="path1"
     style="stroke-width:10.6667" />
  <path
     d="m 64,88.380952 v 0.06095"
     id="path2"
     style="stroke-width:12.1905;stroke:#c0c0c0" />
  <path
     d="m 64,70.095238 a 12.190476,12.190476 0 0 0 5.571048,-23.05219 12.068571,12.068571 0 0 0 -14.713905,2.944"
     id="path3"
     style="stroke-width:12.1905;stroke:#c0c0c0" />
  <path
     d="M 51.809524,117.49791 A 54.503619,54.503619 0 0 1 36.693333,111.59162"
     id="path4"
     style="stroke-width:12.1905;stroke:#c0c0c0" />
  <path
     d="m 76.190476,10.502095 a 54.875429,54.875429 0 0 1 0,106.995815"
     id="path5"
     style="stroke-width:12.1905;stroke:#c0c0c0" />
  <path
     d="M 18.767238,95.043048 A 54.619429,54.619429 0 0 1 11.288381,79.24419"
     id="path6"
     style="stroke-width:12.1905;stroke:#c0c0c0" />
  <path
     d="m 9.898667,54.857143 c 0.975238,-5.790476 2.852571,-11.276191 5.485714,-16.304762 l 1.030095,-1.859048"
     id="path7"
     style="stroke-width:12.1905;stroke:#c0c0c0" />
  <path
     d="M 32.956952,18.767238 A 54.576762,54.576762 0 0 1 51.809524,10.502095"
     id="path8"
     style="stroke-width:12.1905;stroke:#c0c0c0" />
</svg>
